<svg height="409.6pt" viewBox="0 0 409.6 409.6" width="409.6pt" xmlns="http://www.w3.org/2000/svg"><path d="m402.773438 204.800781c0-109.339843-88.632813-197.972656-197.972657-197.972656-109.339843 0-197.972656 88.632813-197.972656 197.972656zm0 0" fill="#94c1ff"/><path d="m409.601562 211.625h-409.601562v-6.824219c0-112.925781 91.875-204.800781 204.800781-204.800781s204.800781 91.875 204.800781 204.800781zm-395.828124-13.652344h382.054687c-3.609375-102.253906-87.914063-184.320312-191.027344-184.320312s-187.421875 82.066406-191.027343 184.320312zm0 0" fill="#0e65e5"/><path d="m402.773438 204.800781c0 109.339844-88.632813 197.972657-197.972657 197.972657-109.339843 0-197.972656-88.632813-197.972656-197.972657zm0 0" fill="#fff"/><path d="m204.800781 409.601562c-112.925781 0-204.800781-91.875-204.800781-204.800781 0-3.773437 3.058594-6.828125 6.828125-6.828125h395.945313c3.769531 0 6.828124 3.054688 6.828124 6.828125 0 112.925781-91.875 204.800781-204.800781 204.800781zm-191.027343-197.976562c3.605468 102.253906 87.914062 184.320312 191.027343 184.320312s187.417969-82.066406 191.027344-184.320312zm0 0" fill="#0e65e5"/><path d="m204.800781 361.8125c-95.289062 0-174.835937-67.335938-193.707031-157.011719h-4.265625c0 109.335938 88.636719 197.972657 197.972656 197.972657 109.335938 0 197.972657-88.636719 197.972657-197.972657h-4.265626c-18.875 89.675781-98.417968 157.011719-193.707031 157.011719zm0 0" fill="#0e65e5"/><path d="m204.800781 409.601562c-112.925781 0-204.800781-91.875-204.800781-204.800781 0-3.773437 3.058594-6.828125 6.828125-6.828125h4.265625c3.230469 0 6.015625 2.261719 6.679688 5.421875 18.484374 87.839844 97.140624 151.59375 187.027343 151.59375s168.542969-63.753906 187.027344-151.59375c.660156-3.160156 3.449219-5.421875 6.679687-5.421875h4.265626c3.769531 0 6.828124 3.054688 6.828124 6.828125 0 112.925781-91.875 204.800781-204.800781 204.800781zm-185.707031-159.433593c20.414062 83.570312 95.933594 145.777343 185.707031 145.777343 89.773438 0 165.289063-62.207031 185.703125-145.777343-33.035156 70.699219-105.160156 118.472656-185.703125 118.472656-80.546875 0-152.667969-47.773437-185.707031-118.472656zm0 0" fill="#0e65e5"/><path d="m279.894531 204.800781c0 41.472657-33.621093 75.09375-75.09375 75.09375-41.472656 0-75.09375-33.621093-75.09375-75.09375 0-41.472656 33.621094-75.09375 75.09375-75.09375 41.472657 0 75.09375 33.621094 75.09375 75.09375zm0 0" fill="#5c9eff"/><path d="m204.800781 286.71875c-45.167969 0-81.921875-36.746094-81.921875-81.917969s36.753906-81.921875 81.921875-81.921875 81.917969 36.75 81.917969 81.921875-36.75 81.917969-81.917969 81.917969zm0-150.183594c-37.644531 0-68.265625 30.625-68.265625 68.265625 0 37.636719 30.621094 68.265625 68.265625 68.265625 37.640625 0 68.265625-30.628906 68.265625-68.265625 0-37.640625-30.625-68.265625-68.265625-68.265625zm0 0" fill="#0e65e5"/><path d="m252.585938 204.800781c0 26.390625-21.394532 47.785157-47.785157 47.785157-26.394531 0-47.789062-21.394532-47.789062-47.785157 0-26.394531 21.394531-47.789062 47.789062-47.789062 26.390625 0 47.785157 21.394531 47.785157 47.789062zm0 0" fill="#fff"/><path d="m204.800781 259.414062c-30.113281 0-54.613281-24.5-54.613281-54.613281s24.5-54.613281 54.613281-54.613281 54.613281 24.5 54.613281 54.613281-24.5 54.613281-54.613281 54.613281zm0-95.574218c-22.585937 0-40.960937 18.375-40.960937 40.960937 0 22.585938 18.375 40.960938 40.960937 40.960938 22.585938 0 40.960938-18.375 40.960938-40.960938 0-22.585937-18.375-40.960937-40.960938-40.960937zm0 0" fill="#0e65e5"/><g fill="#fff"><path d="m63.125 143.847656c-.988281 0-1.996094-.210937-2.945312-.671875-3.398438-1.628906-4.835938-5.707031-3.203126-9.105469 15.238282-31.785156 40.855469-58.289062 72.128907-74.613281 3.347656-1.746093 7.46875-.449219 9.214843 2.894531 1.742188 3.339844.445313 7.46875-2.894531 9.210938-28.675781 14.96875-52.167969 39.269531-66.136719 68.414062-1.175781 2.445313-3.621093 3.871094-6.164062 3.871094zm0 0"/><path d="m327.679688 184.320312c-3.769532 0-6.828126-3.054687-6.828126-6.828124v-27.304688c0-3.773438 3.058594-6.828125 6.828126-6.828125 3.769531 0 6.828124 3.054687 6.828124 6.828125v27.304688c0 3.773437-3.058593 6.828124-6.828124 6.828124zm0 0"/><path d="m341.332031 170.667969h-27.304687c-3.769532 0-6.828125-3.054688-6.828125-6.828125 0-3.773438 3.058593-6.828125 6.828125-6.828125h27.304687c3.769531 0 6.828125 3.054687 6.828125 6.828125 0 3.773437-3.058594 6.828125-6.828125 6.828125zm0 0"/><path d="m143.359375 368.640625c-3.769531 0-6.824219-3.054687-6.824219-6.828125v-27.304688c0-3.773437 3.054688-6.828124 6.824219-6.828124s6.828125 3.054687 6.828125 6.828124v27.304688c0 3.773438-3.058594 6.828125-6.828125 6.828125zm0 0"/><path d="m157.011719 354.988281h-27.304688c-3.769531 0-6.828125-3.054687-6.828125-6.828125 0-3.773437 3.058594-6.828125 6.828125-6.828125h27.304688c3.769531 0 6.828125 3.054688 6.828125 6.828125 0 3.773438-3.058594 6.828125-6.828125 6.828125zm0 0"/></g></svg>